<?xml version="1.0" encoding="UTF-8"?>
<!DOCTYPE svg PUBLIC "-//W3C//DTD SVG 1.1//EN" "http://www.w3.org/Graphics/SVG/1.1/DTD/svg11.dtd">
<svg xmlns="http://www.w3.org/2000/svg" xmlns:xlink="http://www.w3.org/1999/xlink" version="1.1" >   
    <symbol id="close" viewBox="0 0 24 24">
        <path fill="white" d="M19,6.41L17.59,5L12,10.59L6.41,5L5,6.41L10.59,12L5,17.59L6.41,19L12,13.41L17.59,19L19,17.59L13.41,12L19,6.41Z" />
    </symbol>
    <symbol id="edit" viewBox="0 0 24 24">
        <path fill="white" d="M20.71,7.04C21.1,6.65 21.1,6 20.71,5.63L18.37,3.29C18,2.9 17.35,2.9 16.96,3.29L15.12,5.12L18.87,8.87M3,17.25V21H6.75L17.81,9.93L14.06,6.18L3,17.25Z" />
    </symbol>
    <symbol id="multi" viewBox="0 0 24 24">
        <path fill="white" d="M16,13C15.71,13 15.38,13 15.03,13.05C16.19,13.89 17,15 17,16.5V19H23V16.5C23,14.17 18.33,13 16,13M8,13C5.67,13 1,14.17 1,16.5V19H15V16.5C15,14.17 10.33,13 8,13M8,11A3,3 0 0,0 11,8A3,3 0 0,0 8,5A3,3 0 0,0 5,8A3,3 0 0,0 8,11M16,11A3,3 0 0,0 19,8A3,3 0 0,0 16,5A3,3 0 0,0 13,8A3,3 0 0,0 16,11Z" />
    </symbol>
</svg>